<svg xmlns="http://www.w3.org/2000/svg" viewBox="0 0 512 512"><path d="M256 0c141.4 0 256 114.6 256 256S397.4 512 256 512 0 397.4 0 256 114.6 0 256 0z" fill="#DFF3FD"/><path d="M293.66 113.68c40.7 0 73.67 32.98 73.67 73.67 0 40.68-32.98 73.67-73.67 73.67-40.7 0-73.67-33-73.67-73.67 0-40.7 32.9-73.67 73.6-73.67z" fill="#FFEF76"/><path d="M.42 270.6c24.03-19.5 65.06-47.62 95.35-41.23 45.45 9.6 80.3 62.64 114.64 57.08 34.4-5.56 76.3-72.73 107.1-66.16 30.8 6.5 78.3 65.1 108.1 60.6 29.8-4.6 36.4-76.8 74.3-91 1.1-.4 2.2-.8 3.3-1.1 5.8 21.4 8.9 43.8 8.9 67 0 43.7-10.9 84.8-30.3 120.8-75.6 12.4-334.1 37.9-432.6 29.8C21 368 3.4 321.2.5 270.5z" fill="#66B96A"/><path d="M384.1 303.2c-19.53-4.65-39.1-9.97-58.74-13.35-7.05-1.38-14.15-2.46-21.32-3-4.47-.35-8.93-.48-13.38-.43-4.46-.05-8.92.08-13.38.42-7.17.55-14.27 1.63-21.33 3-19.63 3.4-39.2 8.7-58.75 13.35-4.12.6-8.26 1.2-12.42 1.6-61.34 5.9-122.47-25.1-183.15-20 7.63 68 41.83 127.9 91.97 169.1 16.23 4.8 33.1 8.1 50.48 9.7l1 .1 4.68.3 2.08.1c1.33.1 2.66.1 4 .2.87 0 1.74 0 2.6.1l3.6.1h6.45c1.9 0 3.9-.1 5.8-.1h.9l5.5-.3 1.5-.07 4.9-.3 2.3-.16 3.1-.3c35.1-3.26 68.2-13.5 97.9-29.3 29.6 15.8 62.7 26.04 97.9 29.3l3.1.3 2.3.2c1.6.12 3.2.23 4.9.32l1.5.04c1.3.1 2.6.1 3.92.2 56.15-40.1 95.46-102.2 105.2-173.8-37.6 7.3-75.3 17.7-113.1 14-4.17-.4-8.3-.97-12.4-1.66z" fill="#B1E3FB"/><path d="M490.04 359.86c-42.12-8.32-84.35-24-126.92-20.76-31.36 2.4-61.2 14.98-92.5 18.02-66.08 6.4-131.9-30.15-197.2-18.15-17.76 3.26-35.87 10.08-53.84 15.36C58.13 446.9 149.46 512 256 512c104.4 0 194.2-62.5 234.04-152.14z" fill="#7FD3F9"/><path d="M97.88 437.72s73.03.8 174.3-31.33c46.36-14.8 93.7-28.6 142.3-26.2 20.4.9 40.7 3.9 60.82 7.9C430.47 462.3 349.04 512 256 512c-59.68 0-114.6-20.42-158.12-54.66v-19.62z" fill="#429F46"/><path d="M433.58 440.37c-32.57-1.84-116.2-8.82-195.5-33.98-46.37-14.8-93.7-28.6-142.3-26.2-19.88.9-39.65 3.7-59.26 7.6C81.3 462.2 162.84 512 256 512c68.97 0 131.56-27.28 177.58-71.63z" fill="#66B96A"/><path d="M417.7 454.47c-51-6.5-102.17-14.83-151.93-21.13-35.96-4.55-72.53-7.7-108.36-2.2-23.4 3.6-46 10.8-68.3 18.96C133.9 488.67 192.3 512 256 512c61.32 0 117.6-21.57 161.7-57.53z" fill="#388D3C"/><path d="M126.13 108.6s5.8-1.24 10.64-.3c4.85.92 9.9 4.95 15.4 5.26 5.46.3 4.33-1.75 4.33-1.75s-3.52.6-4.45-2.4c-.92-3 2.9-5.4 8.78-9.5 5.9-4.1 7.03-8.2 5.9-10.8 0 0-1.04 1.7-5.9 4.3-4.85 2.6-8.36 7.4-12.18 10.8-3.83 3.4-4.03 3.6-7.65 2.9-3.6-.7-11.36-1.8-14.87 1.8zm41.17 15.92s5.78-1.24 10.63-.32c4.85.93 9.9 4.96 15.4 5.28 5.47.3 4.33-1.76 4.33-1.76s-3.5.5-4.45-2.48c-.9-3 2.9-5.38 8.8-9.5 5.9-4.14 7.1-8.27 5.9-10.86 0 0-1 1.66-5.9 4.24-4.8 2.6-8.3 7.34-12.2 10.74-3.8 3.42-4 3.62-7.6 2.9s-11.3-1.86-14.8 1.76zm5.65-33.24s5.8-1.25 10.64-.32c4.8.93 9.9 4.96 15.4 5.27 5.4.3 4.3-1.76 4.3-1.76s-3.5.52-4.5-2.47c-.9-3 2.9-5.38 8.8-9.5 5.9-4.14 7-8.27 5.9-10.85 0 0-1.1 1.65-5.9 4.23-4.9 2.6-8.4 7.34-12.2 10.74-3.8 3.4-4.1 3.62-7.7 2.9s-11.4-1.86-14.9 1.76zm-40.23-20.66s5.8-1.24 10.64-.3c4.85.92 9.9 4.95 15.4 5.26 5.47.3 4.33-1.76 4.33-1.76s-3.6.52-4.5-2.48c-.9-3 2.9-5.37 8.8-9.5s7-8.26 5.9-10.85c0 0-1.1 1.6-5.9 4.2-4.9 2.6-8.4 7.3-12.2 10.7-3.8 3.4-4.1 3.6-7.7 2.9-3.7-.8-11.4-1.9-14.9 1.7zm-20.45 75.25s5.8-1.23 10.64-.3c4.9.92 10 4.95 15.4 5.26 5.5.3 4.4-1.76 4.4-1.76s-3.5.52-4.4-2.47c-.9-3 2.9-5.38 8.8-9.5 5.9-4.14 7-8.27 5.9-10.86 0 0-1 1.66-5.9 4.24-4.8 2.58-8.4 7.34-12.2 10.74-3.8 3.42-4 3.62-7.6 2.9-3.6-.73-11.3-1.86-14.9 1.75zm-23.4-35.65s5.8-1.24 10.63-.32c4.86.93 9.92 4.97 15.4 5.28 5.47.3 4.33-1.76 4.33-1.76s-3.5.5-4.44-2.48c-1-3 2.8-5.37 8.7-9.5 5.9-4.13 7-8.27 5.9-10.85 0 0-1.1 1.6-5.9 4.2-4.9 2.6-8.4 7.3-12.2 10.7-3.9 3.4-4.1 3.6-7.7 2.9s-11.4-1.9-14.9 1.7zm262.2 46.58s5.8-1.23 10.65-.3c4.86.93 9.92 4.95 15.4 5.27 5.47.3 4.33-1.76 4.33-1.76s-3.5.6-4.44-2.4c-.9-3 2.9-5.4 8.8-9.5s7.1-8.2 5.9-10.8c0 0-1 1.7-5.9 4.3-4.8 2.6-8.3 7.4-12.2 10.8-3.8 3.4-4 3.6-7.6 2.9-3.6-.7-11.3-1.8-14.9 1.8zm41.18 15.92s5.8-1.24 10.64-.3c4.8.92 9.9 4.95 15.3 5.26 5.4.3 4.3-1.76 4.3-1.76s-3.5.52-4.5-2.48c-.9-3 2.9-5.37 8.8-9.5s7-8.26 5.9-10.85c0 0-1.1 1.6-5.9 4.2-4.9 2.6-8.4 7.3-12.2 10.7-3.8 3.4-4.1 3.6-7.7 2.9-3.6-.7-11.4-1.9-14.9 1.7zm5.65-33.24s5.8-1.24 10.65-.3c4.86.92 9.92 4.95 15.4 5.26 5.47.3 4.33-1.76 4.33-1.76s-3.5.52-4.44-2.47c-.93-3 2.9-5.3 8.78-9.5 5.9-4.1 7.03-8.2 5.9-10.8 0 0-1.04 1.7-5.9 4.3s-8.36 7.4-12.18 10.8c-3.83 3.4-4.04 3.6-7.65 2.9-3.7-.7-11.4-1.8-14.9 1.8zm-40.22-20.65s5.8-1.24 10.63-.3c4.9.92 10 4.95 15.4 5.26 5.5.3 4.4-1.8 4.4-1.8s-3.5.5-4.4-2.5c-.9-3 2.9-5.4 8.8-9.5s7-8.3 5.9-10.9c0 0-1 1.6-5.9 4.2-4.8 2.6-8.3 7.3-12.2 10.7-3.8 3.4-4 3.6-7.6 2.9-3.6-.8-11.3-1.9-14.9 1.7zm-20.45 75.25s5.8-1.24 10.64-.3c4.85.92 9.9 4.95 15.4 5.26 5.47.3 4.33-1.76 4.33-1.76s-3.52.52-4.45-2.48c-.92-3 2.9-5.37 8.78-9.5 5.9-4.13 7.03-8.26 5.9-10.85 0 0-1.04 1.66-5.9 4.24-4.85 2.5-8.36 7.3-12.18 10.7-3.83 3.4-4.04 3.6-7.65 2.9-3.6-.8-11.36-1.9-14.87 1.7zm-23.4-35.66s5.8-1.23 10.63-.3c4.86.92 9.92 4.95 15.4 5.26 5.47.3 4.33-1.76 4.33-1.76s-3.6.52-4.5-2.48c-1-3 2.9-5.37 8.8-9.5s7-8.26 5.9-10.85c0 0-1.1 1.6-5.9 4.2-4.9 2.6-8.4 7.3-12.2 10.7-3.8 3.4-4 3.6-7.7 2.9-3.7-.8-11.4-1.9-14.9 1.7z"/><path d="M98.36 307.73c33.27 0 60.23 1.13 60.23 2.52 0 1.4-27 2.53-60.3 2.53S38 311.65 38 310.25s26.97-2.52 60.23-2.52zm290.54 42.43c23.3 0 42.17 1.47 42.17 3.28s-18.88 3.28-42.17 3.28c-23.3 0-42.17-1.47-42.17-3.28s18.88-3.28 42.17-3.28zm-119.95 28.8c22.87 0 41.4 1.23 41.4 2.76 0 1.54-18.53 2.78-41.4 2.78-22.88 0-41.42-1.24-41.42-2.78 0-1.53 18.55-2.77 41.42-2.77zM131.6 357.22c31.52 0 57.08 1.04 57.08 2.3 0 1.3-25.56 2.33-57.1 2.33s-57.08-1.04-57.08-2.32c0-1.27 25.56-2.3 57.1-2.3zm47.2-25.76c33.05 0 59.84 1.58 59.84 3.54s-26.8 3.54-59.84 3.54c-33.06 0-59.86-1.58-59.86-3.53 0-1.9 26.8-3.5 59.86-3.5zm253.28-14.65c26.78 0 48.5 1.7 48.5 3.8 0 2.1-21.72 3.8-48.5 3.8-26.77 0-48.48-1.7-48.48-3.8 0-2.1 21.7-3.8 48.48-3.8zm-174.24 1c30.96 0 56.06 1.1 56.06 2.3 0 1.3-25.1 2.3-56.06 2.3s-56.07-1-56.07-2.2 25.1-2.2 56.07-2.2z" fill="#DFF3FD"/><path d="M380.6 32.34c-6.05 11.1-25.13 19.22-47.73 19.22-9.25 0-17.9-1.36-25.33-3.73-8.42 8.34-24.85 14-43.73 14-21 0-39-7.04-46.3-17-7 2.08-15.2 3.26-23.8 3.26-24.8 0-45.4-9.8-49.1-22.7C178.3 9.1 216.1 0 256 0c45.24 0 87.72 11.75 124.6 32.34z" fill="#F3FBF9"/></svg>
