<svg xmlns="http://www.w3.org/2000/svg" viewBox="0 0 512 512"><path d="M256 0c141.4 0 256 114.6 256 256S397.4 512 256 512 0 397.4 0 256 114.6 0 256 0z" fill="#3EBCF6"/><path d="M73.98 261.58v4.5c.04 11.42.9 13.92 2.5 20.73h.12c13.7 80.4 80.12 142.7 162.4 150.3l.7.1 3.26.3 1.45.1 2.8.2 1.8.1 2.5.1c1 0 2 0 2.9.1h6.5l3.9-.2 1.1-.06 3.4-.25 1.6-.13 2.2-.2c81.6-7.6 147.5-69.04 161.9-148.46 1.8-6.9 1.8-9 2.7-19.8h.2l.06-2.05v-1.05c1.17-13.56-.6-35.8-5.2-53.08l-.24-.94C412.46 132.8 341 74.3 255.9 74.3c-87.2 0-160 61.4-177.74 143.25l-.05.2-.3 1.1-.1.68-.3 1.2c-2.2 9.28-2.94 20.35-3.15 30.03 0 1.8-.1 3.6-.1 5.4v5.6z" fill="#51C3F7"/><path d="M150.64 259.23v2.6c.02 6.6.52 8.06 1.45 12 7.9 46.5 46.4 82.6 94 86.97l.4.04 1.9.15h.8l1.6.1h5c.8 0 1.5 0 2.3-.1h.3l2.23-.1h.6l1.96-.2.96-.1 1.3-.1c47.2-4.4 85.36-40 93.67-85.95 1-3.94 1.06-5.18 1.57-11.4h.14v-1.85c.66-7.82-.36-20.72-3-30.7l-.16-.52c-11.5-45.7-52.85-79.56-102.1-79.56-50.5 0-92.6 35.5-102.9 82.9 0 .04-.03.1-.04.1l-.2.65-.1.4-.2.7c-1.3 5.4-1.7 11.8-1.84 17.4-.07 1.06-.1 2.1-.1 3.1v3.27z" fill="#62C9F8"/><path d="M10.7 265.1s36.35-36.1 62.46-39.65c26.1-3.54 78.34 33.84 100.2 35.86 21.84 2.1 84.2-63.6 108.7-52.5 24.5 11.1 81 43 112.43 48.5 31.4 5.6 78.8-55.5 101.2-62.6 2.8-.9 5.5-1.6 8.3-2.2 5.2 20.4 7.9 41.7 7.9 63.6 0 8.3-.4 16.4-1.2 24.4-108.4 20.6-373.7 59.8-431.2 36.4-58.1-23.7-68.8-51.8-68.8-51.8z" fill="#4CB5AB"/><path d="M.3 268.48c14.47-11.04 50.32-23.04 74.83-6.37 21.72 14.8 25.8 16.1 39.9 12.6 65.75-42.3 99.66-28.4 130.7 9.6 11.13 9.8 25.36 15.2 40.4 18.3 23.85-12.2 50.55-25.7 75.23-38.3 69.16-35.1 108.36-10.7 150.55-14.7.1 2.2.1 4.4.1 6.6 0 23.2-3.1 45.7-8.9 67.1H8.9c-4.75-17.5-7.7-35.8-8.6-54.6z" fill="#26A599"/><path d="M8.9 323.08h494.2C473.63 431.92 374.17 512 256 512 137.82 512 38.37 431.92 8.9 323.08z" fill="#7FDDE9"/><path d="M197.47 114.27c26.16 0 47.36 21.2 47.36 47.36S223.63 209 197.47 209s-47.36-21.2-47.36-47.37 21.2-47.36 47.4-47.36zM83.67 91.14c2.34 0 4.24 1.9 4.24 4.24 0 2.35-1.9 4.25-4.2 4.25-2.3 0-4.2-1.9-4.2-4.25 0-2.34 1.9-4.24 4.3-4.24zm376.78 102.94c2.34 0 4.24 1.9 4.24 4.24 0 2.34-1.9 4.24-4.3 4.24s-4.3-1.9-4.3-4.24c0-2.34 1.9-4.24 4.2-4.24zm-408.9-24.15c2.34 0 4.24 1.9 4.24 4.25s-1.9 4.24-4.3 4.24-4.3-1.9-4.3-4.24 1.9-4.25 4.2-4.25zm370.1-83.73c2.35 0 4.25 1.9 4.25 4.24 0 2.35-1.9 4.24-4.24 4.24s-4.24-1.9-4.24-4.24c0-2.34 1.9-4.24 4.24-4.24zm-8.47 77.58c2.34 0 4.24 1.9 4.24 4.24 0 2.34-1.9 4.24-4.24 4.24-2.35 0-4.25-1.9-4.25-4.24 0-2.34 1.9-4.24 4.25-4.24zm-84.86-140.3c2.34 0 4.24 1.9 4.24 4.23s-1.9 4.3-4.24 4.3-4.24-1.9-4.24-4.2 1.9-4.2 4.24-4.2zm-139.6-1.83c2.35 0 4.25 1.9 4.25 4.24s-1.9 4.2-4.24 4.2c-2.34 0-4.25-1.9-4.25-4.3s1.9-4.3 4.25-4.3zm-85.85 142.13c2.34 0 4.24 1.9 4.24 4.24 0 2.34-1.9 4.24-4.2 4.24-2.3 0-4.2-1.9-4.2-4.24 0-2.34 1.9-4.24 4.3-4.24z" fill="#FFF"/><path d="M52.36 411.13c7.58 4.3 15.32 7.6 22.32 8.55 26.1 3.54 78.33-33.84 100.18-35.86s84.2 63.64 108.7 52.53c24.52-11.1 81-42.93 112.45-48.48 17-3 38.5 13.3 58.3 30.1 14.2-17.37 26.2-36.65 35.5-57.4-119-21.25-354.9-54.2-408.6-32.3-30 12.23-47.4 25.65-57.2 35.76 7.9 16.77 17.4 32.55 28.5 47.1z" fill="#64BFB6"/><path d="M38.24 390.64c13.05 1.7 26.96.16 38.4-7.62 21.73-14.77 25.8-16.06 39.9-12.6 65.76 42.34 99.66 28.5 130.72-9.57 11.1-9.78 25.35-15.13 40.38-18.23 23.86 12.24 50.56 25.75 75.23 38.28 45.05 22.87 77.37 20.5 106.1 17.18 15.37-23 27.1-48.6 34.4-76.02H8.63c6.53 24.5 16.6 47.55 29.62 68.58zM18.8 283l-.02-.02c-.5 1.1-1 2.27-1.5 3.5.5-1.18 1-2.34 1.52-3.5z" fill="#4CB5AE"/><path d="M237.32 511.32c5.68-7.8 9.03-17.42 9.03-27.82 0-26.16-21.2-47.36-47.36-47.36s-47.4 21.2-47.4 47.36c0 2.2.1 4.38.4 6.5 26.3 11.74 55.1 19.14 85.2 21.32z" fill="#DFF5F9"/><path d="M7.94 319.52h496.1c-.34 1.4-.73 2.82-1.12 4.2H9.08c-.4-1.38-.78-2.8-1.14-4.2z" fill="#00877A"/><path d="M256 327.58l-19.7 13.84 19.7-13.84zm-24.46 17.18l-93.9 65.92 93.9-65.92zm-97.44 68.4l-48.37 33.98 48.37-33.97zM256 327.6V341v-13.4zm0 17.78v26.33-26.3zm0 30.92V512 376.28zm0-48.7l18.92 13.33L256 327.6zm25.32 17.83l66.22 46.62-66.22-46.6zm69.6 49l43.95 30.92-43.94-30.92zm47.53 33.45l27.64 19.45-27.7-19.45zM118 360.1c29.83 0 54.03.67 54.03 1.5s-24.2 1.52-54.04 1.52c-29.9 0-54.1-.68-54.1-1.5s24.2-1.52 54-1.52zm370.27 3.64c-1.43 3.07-2.9 6.12-4.45 9.13-9.14-.72-15.57-2.44-15.57-4.44 0-2.3 8.6-4.24 20.02-4.7zm-39.55 60.75l-3.6 4c-17.94 0-34.08-.3-45.43-.7l-1.3-.1c-9.7-.4-15.6-.9-15.6-1.4 0-.5 4.4-.9 11.9-1.2l1.2-.1c11.4-.5 29.3-.8 49.4-.8h3.2zm-62.58 51.9c-3.33 1.9-6.7 3.8-10.14 5.7-10.83.8-25.8 1.4-42.35 1.4-33.06 0-59.85-2.2-59.85-4.8s26.8-4.8 59.85-4.8c22.63 0 42.32 1 52.5 2.5zM99.78 458.8c-3.08-2.37-6.1-4.82-9.07-7.32 4.5-.14 9.4-.22 14.4-.22 23.6 0 42.7 1.7 42.7 3.8 0 2.08-19.1 3.77-42.7 3.77-1.8 0-3.5 0-5.3-.03zm-56.2-59.9c-2.42-3.57-4.73-7.2-6.95-10.88 4.12-.26 8.6-.4 13.3-.4 20.02 0 36.24 2.54 36.24 5.68s-16.22 5.68-36.24 5.68c-2.17 0-4.3-.03-6.36-.1zm268.65 36.5c14.66 0 26.56 1.62 26.56 3.62s-11.9 3.64-26.6 3.64c-14.7 0-26.6-1.63-26.6-3.64 0-2 11.9-3.63 26.5-3.63zM92.73 330.04c42.27 0 76.52 1.47 76.52 3.28 0 1.8-34.25 3.28-76.5 3.28s-76.53-1.46-76.53-3.27c0-1.8 34.26-3.28 76.52-3.28zm181.57 41.4c24.27 0 43.94 1.14 43.94 2.53 0 1.4-19.67 2.53-43.94 2.53-5.8 0-11.35-.05-16.43-.17l-1.88-.05c-15.2-.4-25.7-1.27-25.7-2.3 0-1.02 10.5-1.9 25.6-2.3l1.9-.04c5-.1 10.6-.18 16.3-.18zm111.88 20.2c33.05 0 59.85.7 59.85 1.52s-26.8 1.52-59.85 1.52c-12.58 0-24.25-.1-33.88-.27h-1.37c-14.9-.2-24.6-.7-24.6-1.2 0-.4 8.24-.9 21.2-1.1h1.36c10.2-.2 23.1-.3 37.2-.3zm55.05-48.98c24.96 0 45.2 1.02 45.2 2.27s-20.24 2.28-45.2 2.28c-24.97 0-45.2-1-45.2-2.2s20.23-2.2 45.2-2.2zM182.1 410.3c38.5 0 69.73.75 69.73 1.67 0 .9-31.22 1.66-69.73 1.66-18.14 0-34.66-.17-47.06-.44l-.94-.1c-13.4-.3-21.73-.8-21.73-1.2 0-.5 9.84-1 25.27-1.3h1.05c11.9-.3 27-.4 43.4-.4zm89.17-69.4H277c27.85.13 49.58 1.1 49.58 2.28 0 1.08-18.53 2-43.3 2.22h-1.96c-3.26.04-6.62.05-10.05.05-4.55 0-8.97-.02-13.2-.06l-2.08-.1c-8.6-.1-16.3-.3-22.6-.6l-1.9-.1c-9.7-.4-15.6-1-15.6-1.6 0-.7 7.9-1.4 20.3-1.8l2.1-.1c5.2-.2 11.1-.3 17.5-.4l2.1-.08c4.2-.04 8.6-.06 13.1-.06z" fill="#B1E9F1"/></svg>
