<svg xmlns="http://www.w3.org/2000/svg" viewBox="0 0 512 512"><path d="M256 0c141.4 0 256 114.6 256 256S397.4 512 256 512 0 397.4 0 256 114.6 0 256 0z" fill="#FCD077"/><path d="M60.24 262v4.84c.03 12.28.96 14.98 2.68 22.3h.13c14.75 86.4 86.17 153.48 174.67 161.6l.74.07 3.52.3 1.55.1 3 .2c.65.1 1.3.1 1.95.1.9 0 1.8.1 2.7.1h10c1.38 0 2.75-.1 4.13-.1h1.2l3.7-.2 1.8-.1 2.4-.2c87.7-8.2 158.6-74.3 174.1-159.7 1.9-7.3 1.9-9.6 2.9-21.2h.3l.1-2.2v-1.2c1.3-14.5-.6-38.5-5.6-57l-.2-1c-21.4-85-98.23-147.9-189.8-147.9-93.75 0-172.1 66-191.13 154.1l-.1.2-.3 1.2-.2.77-.4 1.3c-2.4 10-3.2 21.9-3.4 32.3-.07 1.95-.1 3.9-.1 5.8v6z" fill="#FCD585"/><path d="M135.9 259.68v2.97c.02 7.54.6 9.2 1.65 13.68h.07c9.05 53 52.87 94.16 107.17 99.14l.4.05c.7.06 1.4.1 2.1.17h.9l1.8.1h5.8c.9 0 1.8 0 2.7-.1h.4l2.5-.1h.7l2.2-.2 1-.1 1.5-.2c53.8-5 97.3-45.6 106.8-98 1.1-4.5 1.1-5.9 1.7-13.1h.1v-2c.74-8.97-.4-23.67-3.47-35.05l-.17-.6c-12.95-52-60.1-90.6-116.25-90.6-57.56 0-105.6 40.5-117.3 94.5l-.05.14-.2.7-.1.44-.2.8c-1.5 6.16-1.97 13.46-2.1 19.8-.05 1.2-.08 2.4-.08 3.6v3.7z" fill="#FFF7C3"/><path d="M7.35 276.7s36.83-31.62 63.28-34.7c26.45-3.1 79.37 29.64 101.5 31.4 22.14 1.8 85.3-55.74 110.14-46 24.83 9.73 82.06 37.6 113.92 42.47 31.8 4.87 79.9-48.67 102.5-54.87 3.2-.9 6.4-1.6 9.5-2.2 2.4 14.05 3.6 28.5 3.6 43.22 0 11.82-.9 23.44-2.4 34.83-112.6 18.3-375.1 51.48-432.6 31.24-58.9-20.8-69.7-45.4-69.7-45.4z" fill="#FFA526"/><path d="M.82 276.48c16.84-8.5 47.86-15.38 69.84-2.38 21.9 12.94 26 14.07 40.2 11.04 66.3-37.1 100.46-24.96 131.76 8.38 5.42 4.15 11.57 7.4 18.2 9.93 6.63-2.54 12.78-5.78 18.2-9.93 31.3-33.34 65.48-45.48 131.75-8.38 14.2 3.03 18.32 1.9 40.2-11.04 18.37-10.86 43.04-7.84 60.5-1.6-1.1 17.3-3.93 34.13-8.3 50.32H8.83c-4.03-14.95-6.75-30.44-8-46.34z" fill="#F98B00"/><path d="M8.83 322.82h494.34C473.77 431.8 374.27 512 256 512S38.22 431.8 8.83 322.82z" fill="#FFDD95"/><path d="M76.47 153.56c4.74 0 9.2.93 13.17 2.57 4.27-3.46 10.14-5.6 16.6-5.6 11.2 0 20.6 6.4 23.1 15 5.6 1.4 10.1 4.9 12.15 9.37.6-.07 1.3-.1 2-.1 10.3 0 18.7 6.93 18.7 15.48s-8.4 15.46-18.8 15.46c-3.2 0-6.3-.67-8.9-1.85-2.3 6.4-9.5 11.1-18 11.1-5.2 0-9.9-1.8-13.3-4.6-3.4 2.8-8.1 4.6-13.3 4.6-5 0-9.5-1.6-12.8-4.2-3.5 3.1-8.4 5-13.9 5-5.2 0-9.8-1.7-13.2-4.5-1.6.3-3.2.4-4.8.4-12.3 0-22.3-8.2-22.3-18.4s10-18.5 22.3-18.5h2c1.5-12.1 14-21.5 29-21.5zm310.96 35.06c1.8 0 3.52.35 5.03.98 1.64-1.32 3.88-2.14 6.35-2.14 4.3 0 7.9 2.45 8.9 5.74 2.2.53 3.9 1.86 4.7 3.57.3-.02.5-.03.8-.03 4 0 7.2 2.65 7.2 5.9s-3.2 5.93-7.1 5.93c-1.2 0-2.4-.26-3.4-.7-.8 2.45-3.6 4.24-6.8 4.24-2 0-3.8-.6-5.1-1.7-1.3 1.1-3.1 1.8-5.1 1.8-1.9 0-3.6-.6-4.9-1.6-1.3 1.2-3.2 1.9-5.3 1.9-1.9 0-3.7-.6-5-1.7-.6.1-1.2.2-1.8.2-4.7 0-8.5-3.1-8.5-7s3.8-7 8.6-7c.3 0 .5 0 .8.1.6-4.6 5.4-8.2 11.17-8.2zM297.07 41.58c2.92 0 5.68.58 8.1 1.6 2.65-2.14 6.26-3.46 10.25-3.46 6.9 0 12.7 3.95 14.24 9.25 3.45.86 6.22 3 7.48 5.76.4-.03.83-.05 1.26-.05 6.37 0 11.55 4.26 11.55 9.53 0 5.3-5.18 9.6-11.55 9.6-2 0-3.86-.4-5.5-1.1-1.4 4-5.83 6.9-11.08 6.9-3.2 0-6.1-1.1-8.2-2.8-2.1 1.8-5 2.9-8.2 2.9-3.06 0-5.84-1-7.9-2.6-2.1 1.9-5.15 3.1-8.53 3.1-3.2 0-6.1-1-8.1-2.7-1 .2-2 .3-3 .3-7.6 0-13.8-5.1-13.8-11.3S270.2 55 277.8 55c.4 0 .8 0 1.2.02 1-7.5 8.6-13.3 17.9-13.3zM446.6 93.6c2.86 0 5.62.4 8.2 1.1 12.7 15.66 23.6 32.83 32.38 51.2-1.8.58-3.77.9-5.82.9-4.5 0-8.6-1.52-11.53-3.98-2.94 2.46-7.02 3.97-11.53 3.97-4.3 0-8.2-1.4-11.1-3.7-2.95 2.7-7.22 4.3-11.97 4.3-4.44 0-8.46-1.5-11.38-3.9-1.35.2-2.74.4-4.17.4-10.67 0-19.33-7.2-19.33-16S409 112 419.68 112c.58 0 1.16.06 1.73.1 1.4-10.47 12.2-18.63 25.2-18.63z" fill="#FFF"/><path d="M34.2 383.9c12.1 8.05 27.07 16.22 39.66 17.72 26 3.1 78.04-29.65 99.8-31.42 21.77-1.76 83.88 55.76 108.3 46.03 24.42-9.74 80.7-37.62 112-42.5 19.8-3.06 45.97 17.2 68.17 34.1 12.78-17.35 23.43-36.35 31.57-56.63L80.23 321.5c-35.5-2.55-51.65 22-60.24 33.8 4.1 9.86 8.9 19.4 14.2 28.58z" fill="#FCCB68"/><path d="M29.2 374.83c15.2 3.16 32.73 2.98 46.6-5.33 21.65-12.94 25.72-14.07 39.76-11.04 65.5 37.1 99.3 24.96 130.22-8.4 5.36-4.13 11.44-7.37 18-9.92 6.54 2.55 12.63 5.8 17.98 9.93 30.94 33.35 64.72 45.5 130.23 8.4 14-3.04 18.1-1.9 39.7 11.03 9 5.4 19.6 7.37 30 7.22 9.4-17.53 16.8-36.28 21.9-55.94l-495.3.78c4.9 18.67 11.9 36.52 20.7 53.27z" fill="#FBAD4D"/><path d="M7.37 317.13h497.26c-.42 1.73-.86 3.44-1.3 5.15H8.67c-.45-1.7-.9-3.42-1.3-5.15z" fill="#ED6C00"/><path d="M301.74 185.6s-5.77-1.24-10.6-.32c-4.84.93-9.88 4.94-15.33 5.25-5.4.3-4.3-1.75-4.3-1.75s3.5.52 4.4-2.47c1-2.9-2.8-5.3-8.7-9.4-5.8-4.1-7-8.2-5.8-10.8 0 0 1.1 1.7 5.9 4.2 4.9 2.6 8.4 7.3 12.2 10.7 3.8 3.4 4 3.6 7.6 2.9 3.6-.7 11.3-1.8 14.8 1.8zm38 31.94s-5.78-1.23-10.6-.3c-4.85.92-9.9 4.93-15.35 5.24-5.5.3-4.4-1.75-4.4-1.75s3.5.52 4.4-2.47c.9-2.98-2.9-5.35-8.8-9.46-5.9-4.12-7-8.24-5.9-10.8 0 0 1 1.63 5.8 4.2 4.8 2.58 8.3 7.32 12.1 10.7 3.8 3.4 4 3.6 7.6 2.9 3.6-.73 11.3-1.86 14.8 1.74zm11.5-32.72s-5.77-1.24-10.6-.32c-4.84.93-9.88 4.94-15.34 5.26-5.45.3-4.32-1.76-4.32-1.76s3.5.52 4.43-2.46c1-3-2.8-5.36-8.7-9.47-5.9-4.12-7-8.23-5.9-10.8 0 0 1.1 1.64 5.9 4.2 4.9 2.6 8.4 7.32 12.2 10.7 3.8 3.4 4.1 3.6 7.7 2.9 3.6-.73 11.3-1.86 14.8 1.75z"/></svg>
